<?xml version="1.0" encoding="UTF-8" standalone="no"?>
<!-- Created with Inkscape (http://www.inkscape.org/) -->

<svg
   xmlns:dc="http://purl.org/dc/elements/1.1/"
   xmlns:cc="http://creativecommons.org/ns#"
   xmlns:rdf="http://www.w3.org/1999/02/22-rdf-syntax-ns#"
   xmlns:svg="http://www.w3.org/2000/svg"
   xmlns="http://www.w3.org/2000/svg"
   xmlns:sodipodi="http://sodipodi.sourceforge.net/DTD/sodipodi-0.dtd"
   xmlns:inkscape="http://www.inkscape.org/namespaces/inkscape"
   width="150"
   height="130"
   viewBox="0 0 39.687499 34.395834"
   version="1.1"
   id="svg12891"
   inkscape:version="0.92.4 (5da689c313, 2019-01-14)"
   sodipodi:docname="logotipo2.svg">
  <defs
     id="defs12885" />
  <sodipodi:namedview
     id="base"
     pagecolor="#ffffff"
     bordercolor="#666666"
     borderopacity="1.0"
     inkscape:pageopacity="0.0"
     inkscape:pageshadow="2"
     inkscape:zoom="1.979899"
     inkscape:cx="93.782879"
     inkscape:cy="67.2491"
     inkscape:document-units="mm"
     inkscape:current-layer="layer1"
     showgrid="false"
     units="px"
     inkscape:window-width="1366"
     inkscape:window-height="705"
     inkscape:window-x="1358"
     inkscape:window-y="-8"
     inkscape:window-maximized="1" />
  <metadata
     id="metadata12888">
    <rdf:RDF>
      <cc:Work
         rdf:about="">
        <dc:format>image/svg+xml</dc:format>
        <dc:type
           rdf:resource="http://purl.org/dc/dcmitype/StillImage" />
        <dc:title></dc:title>
      </cc:Work>
    </rdf:RDF>
  </metadata>
  <g
     inkscape:label="Capa 1"
     inkscape:groupmode="layer"
     id="layer1"
     transform="translate(0,-262.60415)">
    <g
       id="g14805">
      <path
         d="m 18.070846,291.07069 c 0,0 -5.080223,-3.99031 -10.5697108,-2.73699 l 0.5476835,-2.26463 c 0,0 0.5231091,0 1.0358671,0.17912 l -0.2242598,1.23424 c 0,0 4.976871,-0.63646 9.21042,3.58826"
         style="fill:#213665;fill-opacity:1;fill-rule:nonzero;stroke:none;stroke-width:0.03527777"
         id="path12855"
         inkscape:connector-curvature="0" />
      <path
         d="m 18.070846,291.07069 c 0,0 -4.541095,-5.6107 -11.4392973,-5.6107 l 3.8670073,-11.53866 c 0,0 0.314311,0.0505 1.213841,0.39339 l -3.2843314,9.77943 c 0,0 6.8930754,1.95885 9.6427804,6.97654"
         style="fill:#60a4de;fill-opacity:0.37837836;fill-rule:nonzero;stroke:none;stroke-width:0.03527777"
         id="path12858"
         inkscape:connector-curvature="0" />
      <path
         d="m 21.393424,291.07069 c 0,0 5.080229,-3.99031 10.569745,-2.73699 l -0.547607,-2.26463 c 0,0 -0.523235,0 -1.036042,0.17912 l 0.224165,1.23424 c 0,0 -4.976711,-0.63646 -9.210261,3.58826"
         style="fill:#213665;fill-opacity:1;fill-rule:nonzero;stroke:none;stroke-width:0.03527777"
         id="path12860"
         inkscape:connector-curvature="0" />
      <path
         d="m 21.393424,291.07069 c 0,0 4.541095,-5.6107 11.439387,-5.6107 l -3.867006,-11.53866 c 0,0 -0.314435,0.0505 -1.214103,0.39339 l 3.284418,9.77943 c 0,0 -6.893165,1.95885 -9.642696,6.97654"
         style="fill:#60a4de;fill-opacity:0.37647059;fill-rule:nonzero;stroke:none;stroke-width:0.03527777"
         id="path12862"
         inkscape:connector-curvature="0" />
      <path
         sodipodi:nodetypes="sccsscscscccccccsscscccccccssscs"
         inkscape:connector-curvature="0"
         id="path12864"
         d="m 14.850343,269.23132 c -0.369881,0 -0.714383,0.10549 -1.033497,0.31652 -0.319115,0.20375 -0.547585,0.46938 -0.685387,0.79684 -0.116039,0.29835 -0.17403,0.70945 -0.17403,1.23338 v 12.34513 c 0,0.60397 0.137791,1.06608 0.413389,1.38626 0.275601,0.31291 0.641859,0.46935 1.098775,0.46935 0.442408,0 0.805026,-0.15644 1.087877,-0.46935 0.282851,-0.3129 0.424286,-0.77501 0.424286,-1.38626 v -9.37616 l 0.550217,0.84642 h 3.371196 l -2.818055,-4.19003 c 0,0 -0.52759,-0.74162 -0.713877,-0.94762 -0.159559,-0.25469 -0.494377,-0.53855 -0.653933,-0.69863 -0.152304,-0.16009 -0.08212,-0.007 -0.292443,-0.10137 -0.203074,-0.0946 -0.284412,-0.22448 -0.574518,-0.22448 z m 9.954191,0 c -0.449661,0 -0.808636,0.15645 -1.076982,0.46935 -0.261093,0.30563 -0.391648,0.76768 -0.391648,1.38621 v 9.51807 l -1.30404,-1.9798 h -3.399115 l 3.408556,5.24346 c 0.174064,0.25469 0.348134,0.50576 0.522199,0.75317 0.174064,0.24013 0.362606,0.45117 0.56568,0.63309 0.203072,0.18192 0.420663,0.31289 0.652748,0.39293 0.232082,0.0873 0.49319,0.131 0.783294,0.131 1.160421,0 1.740627,-0.70221 1.740627,-2.10664 v -12.58528 c 0,-0.61853 -0.134199,-1.08058 -0.402547,-1.38621 -0.268345,-0.3129 -0.634607,-0.46935 -1.098772,-0.46935 z"
         style="font-style:normal;font-variant:normal;font-weight:normal;font-stretch:normal;font-size:219.40092468px;line-height:1.25;font-family:'Arial Rounded MT Bold';-inkscape-font-specification:'Arial Rounded MT Bold, ';letter-spacing:0px;word-spacing:0px;fill:#60a4de;fill-opacity:0.37647059;stroke:none;stroke-width:0.26458326" />
      <g
         transform="matrix(0.10304565,0,0,0.10304565,12.588344,231.27613)"
         id="g12868"
         style="font-style:normal;font-weight:normal;font-size:219.9985199px;line-height:1.25;font-family:sans-serif;letter-spacing:0px;word-spacing:0px;fill:#1976d2;fill-opacity:1;stroke:none;stroke-width:2.56763291"
         aria-label="H">
        <path
           id="path12866"
           style="font-style:normal;font-variant:normal;font-weight:normal;font-stretch:normal;font-family:'Arial Rounded MT Bold';-inkscape-font-specification:'Arial Rounded MT Bold, ';fill:#1976d2;fill-opacity:1;stroke-width:2.56763291"
           d="m 34.835683,386.01383 v 45.11688 h 68.856957 v -45.11688 q 0,-9.66791 4.29685,-14.50186 4.40426,-4.83395 11.49406,-4.83395 7.19722,0 11.60149,4.83395 4.51168,4.72653 4.51168,14.50186 v 124.07143 q 0,9.77532 -4.51168,14.60927 -4.51169,4.83396 -11.60149,4.83396 -7.19722,0 -11.49406,-4.83396 -4.29685,-4.94137 -4.29685,-14.60927 V 457.12663 H 34.835683 v 52.95863 q 0,9.77532 -4.511688,14.60927 -4.511689,4.83396 -11.601485,4.83396 -7.197217,0 -11.4940631,-4.83396 -4.2968461,-4.94137 -4.2968461,-14.60927 V 386.01383 q 0,-9.66791 4.1894249,-14.50186 4.2968463,-4.83395 11.6014843,-4.83395 7.197217,0 11.601485,4.83395 4.511688,4.72653 4.511688,14.50186 z"
           inkscape:connector-curvature="0" />
      </g>
    </g>
  </g>
</svg>
